<?xml version="1.0" encoding="UTF-8"?>
<!-- Created with Inkscape (http://www.inkscape.org/) -->
<svg width="128.02mm" height="128mm" version="1.1" viewBox="0 0 128.02 128" xmlns="http://www.w3.org/2000/svg" xmlns:cc="http://creativecommons.org/ns#" xmlns:dc="http://purl.org/dc/elements/1.1/" xmlns:rdf="http://www.w3.org/1999/02/22-rdf-syntax-ns#">
 <defs>
  <clipPath id="clipPath4914">
   <rect x="51.594" y="45.646" width="58.208" height="29.86"/>
  </clipPath>
 </defs>
 <metadata>
  <rdf:RDF>
   <cc:Work rdf:about="">
    <dc:format>image/svg+xml</dc:format>
    <dc:type rdf:resource="http://purl.org/dc/dcmitype/StillImage"/>
    <dc:title/>
   </cc:Work>
  </rdf:RDF>
 </metadata>
 <g transform="translate(-6.1472 -7.3019)">
  <ellipse cx="70.158" cy="71.302" rx="64.011" ry="64" fill="#298cff"/>
  <circle cx="80.48" cy="83.052" r="0"/>
  <g fill="none" stroke="#fff" stroke-width="3.5">
   <circle transform="translate(-10.842 -29.285)" cx="80.998" cy="73.063" r="24.973" clip-path="url(#clipPath4914)"/>
   <g stroke-linecap="round">
    <path d="m88.1 43.778-11.069-8.1558"/>
    <path d="m88.1 43.778-11.069 8.1558"/>
    <path d="m52.212 43.778 11.069-8.1558"/>
    <path d="m52.212 43.778 11.069 8.1558"/>
    <path d="m45.233 45.751c1.419 47.726-18.237 40.841-17.849 32.13"/>
    <path d="m52.635 61.65c-0.70743 33.786-25.785 32.631-16.704 45.97"/>
    <path d="m60.252 67.129c-0.22272 31.181-8.636 47.977-17.64 32.607"/>
    <path d="m67.335 69.267c-0.14717 49.651-15.358 37.674-14.372 50.282 0.35886 4.5858 9.6266 6.6684 10.63-0.0354"/>
    <path d="m95.084 45.751c-1.419 47.726 18.237 40.841 17.849 32.13"/>
    <path d="m87.682 61.65c0.70743 33.786 25.785 32.631 16.704 45.97"/>
    <path d="m80.064 67.129c0.22272 31.181 8.636 47.977 17.64 32.607"/>
    <path d="m72.982 69.267c0.14717 49.651 15.358 37.674 14.372 50.282-0.35886 4.5858-9.6266 6.6684-10.63-0.0354"/>
    <path d="m70.156 46.682v-11.25"/>
   </g>
  </g>
  <ellipse cx="70.156" cy="51.546" rx="1.75" ry="1.75" fill="#fff" stroke-width="0"/>
 </g>
</svg>
